HIERARCHY
ROOT Hips
{
	OFFSET	0.00	0.00	0.00
	CHANNELS 6 Xposition Yposition Zposition Zrotation Xrotation Yrotation
	JOINT LeftUpLeg
	{
		OFFSET	 0.126116	-0.065224	 0.014019
		CHANNELS 3 Zrotation Xrotation Yrotation
		JOINT LeftLeg
		{
			OFFSET	 0.000000	 0.569914	 0.000000
			CHANNELS 3 Zrotation Xrotation Yrotation
			JOINT LeftFoot
			{
				OFFSET	 0.000000	 0.544423	 0.000000
				CHANNELS 3 Zrotation Xrotation Yrotation
				JOINT LeftToeBase
				{
					OFFSET	 0.000000	 0.207117	 0.000000
					CHANNELS 3 Zrotation Xrotation Yrotation
					End Site
					{
						OFFSET	 0.000000	 0.207117	 0.000000
					}
				}
			}
		}
	}
	JOINT RightUpLeg
	{
		OFFSET	-0.124023	-0.065224	 0.008373
		CHANNELS 3 Zrotation Xrotation Yrotation
		JOINT RightLeg
		{
			OFFSET	 0.000000	 0.570047	 0.000000
			CHANNELS 3 Zrotation Xrotation Yrotation
			JOINT RightFoot
			{
				OFFSET	 0.000000	 0.544354	 0.000000
				CHANNELS 3 Zrotation Xrotation Yrotation
				JOINT RightToeBase
				{
					OFFSET	 0.000000	 0.207540	 0.000000
					CHANNELS 3 Zrotation Xrotation Yrotation
					End Site
					{
						OFFSET	 0.000000	 0.207540	 0.000000
					}
				}
			}
		}
	}
	JOINT Spine
	{
		OFFSET	 0.000184	 0.117403	 0.007763
		CHANNELS 3 Zrotation Xrotation Yrotation
		JOINT Spine1
		{
			OFFSET	 0.000000	 0.137269	 0.000000
			CHANNELS 3 Zrotation Xrotation Yrotation
			JOINT Spine2
			{
				OFFSET	 0.000000	 0.156879	 0.000000
				CHANNELS 3 Zrotation Xrotation Yrotation
				JOINT LeftShoulder
				{
					OFFSET	 0.080501	 0.160143	 0.002496
					CHANNELS 3 Zrotation Xrotation Yrotation
					JOINT LeftArm
					{
						OFFSET	 0.000000	 0.164363	 0.000000
						CHANNELS 3 Zrotation Xrotation Yrotation
						JOINT LeftForeArm
						{
							OFFSET	 0.000000	 0.364576	 0.000000
							CHANNELS 3 Zrotation Xrotation Yrotation
							JOINT LeftHand
							{
								OFFSET	 0.000000	 0.360812	 0.000000
								CHANNELS 3 Zrotation Xrotation Yrotation
								JOINT LeftHandIndex1
								{
									OFFSET	 0.000000	 0.086006	 0.000000
									CHANNELS 3 Zrotation Xrotation Yrotation
									JOINT LeftHandIndex2
									{
										OFFSET	 0.000000	 0.047237	 0.000000
										CHANNELS 3 Zrotation Xrotation Yrotation
										JOINT LeftHandIndex3
										{
											OFFSET	-0.004284	 0.038165	 0.000551
											CHANNELS 3 Zrotation Xrotation Yrotation
											End Site
											{
												OFFSET	-0.004284	 0.038165	 0.000551
											}
										}
									}
								}
							}
						}
					}
				}
				JOINT Neck
				{
					OFFSET	 0.000000	 0.176489	 0.000000
					CHANNELS 3 Zrotation Xrotation Yrotation
					JOINT Head
					{
						OFFSET	 0.000000	 0.077941	 0.001747
						CHANNELS 3 Zrotation Xrotation Yrotation
						End Site
						{
							OFFSET	 0.000000	 0.077941	 0.001747
						}
					}
				}
				JOINT RightShoulder
				{
					OFFSET	-0.080363	 0.159706	-0.000306
					CHANNELS 3 Zrotation Xrotation Yrotation
					JOINT RightArm
					{
						OFFSET	 0.000000	 0.164196	 0.000000
						CHANNELS 3 Zrotation Xrotation Yrotation
						JOINT RightForeArm
						{
							OFFSET	 0.000000	 0.365611	 0.000000
							CHANNELS 3 Zrotation Xrotation Yrotation
							JOINT RightHand
							{
								OFFSET	 0.000000	 0.360648	 0.000000
								CHANNELS 3 Zrotation Xrotation Yrotation
								JOINT RightHandIndex1
								{
									OFFSET	 0.000000	 0.069977	 0.000000
									CHANNELS 3 Zrotation Xrotation Yrotation
									JOINT RightHandIndex2
									{
										OFFSET	 0.000000	 0.052305	 0.000000
										CHANNELS 3 Zrotation Xrotation Yrotation
										JOINT RightHandIndex3
										{
											OFFSET	 0.009002	 0.042196	 0.000782
											CHANNELS 3 Zrotation Xrotation Yrotation
											End Site
											{
												OFFSET	 0.009002	 0.042196	 0.000782
											}
										}
									}
								}
							}
						}
					}
				}
			}
		}
	}
}
MOTION
Frames:    5
Frame Time: 0.03333334
-0.041388	 1.196117	-3.196333	-4.495568	 1.710686	 177.399200	 166.493200	 29.433810	 5.820044	 4.264582	-29.293680	 0.360313	-13.561450	 57.568240	 19.069800	 1.405416	 29.892150	-2.762565	-177.302200	-12.938440	-12.312710	-4.686019	-47.373050	 2.334592	-8.464575	 45.074590	 5.232911	-8.533773	 63.301540	 14.162780	-5.234509	 7.889582	 7.445838	-0.548032	 3.570889	 1.815156	-0.572393	-4.289110	 0.575005	-121.131600	 4.327589	 92.487270	-41.286270	 51.930270	 36.920990	 23.554740	-1.184685	 0.163165	-7.437140	-2.781992	 30.145430	 4.365467	 20.181540	-1.543253	-5.869637	 25.689400	 2.846514	 5.598877	 10.699030	-0.067969	-0.118732	-5.228705	-0.646994	-2.105994	-1.816651	-4.399006	 119.277900	 1.007508	-91.337550	-12.723450	 46.063220	-1.478764	-28.621310	-1.079734	-0.216864	-5.245508	-7.697749	-4.905473	-2.799279	 25.963370	 1.512263	 16.105440	 45.912620	-12.224050	-8.530271	 23.658480	-1.205539
-0.045504	 1.212861	-3.317842	-4.132219	 2.312175	-179.247700	 164.263900	 23.932260	 9.501401	 5.023755	-33.451300	 0.330975	-14.802270	 63.800790	 21.405780	 1.363016	 29.347370	-2.743733	-173.178900	 2.184478	-12.383280	-9.363803	-65.195840	-0.994607	-10.648480	 57.191270	 8.568915	-2.145849	 39.032250	 4.485999	-4.129401	 8.656977	 4.008113	-0.182415	 3.112434	 1.059559	-0.547808	-3.801857	 0.350885	-121.831500	 5.322417	 93.021120	-25.504270	 53.753120	 25.979080	 23.943970	-1.203076	 0.171232	-6.447104	-2.565883	 24.730280	 4.452305	 20.561560	-1.676168	-5.861865	 23.441150	 2.592575	 5.436008	 6.803524	-0.126502	-0.155716	-5.093747	-0.481028	-2.577064	-1.580038	-3.873456	 119.113400	 0.693110	-91.182330	-4.237835	 48.659420	-5.927959	-27.342910	-1.035343	-0.193283	-0.834003	-2.127728	-7.204225	-2.753648	 26.931930	 1.492628	 16.270010	 46.498870	-12.469960	-8.526253	 24.616150	-1.269548
-0.047553	 1.236663	-3.412958	-3.528248	 2.398199	-176.606500	 164.627500	 16.974770	 11.364880	 4.463395	-30.418500	 1.641998	-10.307560	 66.286510	 17.472200	 1.409303	 29.941820	-2.764311	-171.921900	 10.521970	-13.752900	-9.649431	-65.839130	-0.486677	-9.550521	 66.550590	 9.076128	-1.690644	 33.199250	 3.790024	-2.734061	 8.893482	 0.859103	 0.003413	 2.608407	 0.406942	-0.372051	-3.289515	-0.022479	-121.861200	 6.035556	 93.379390	-4.765589	 54.334900	 11.241210	 14.550970	-0.744815	 0.011280	 4.930197	-6.278649	 16.991500	 4.612390	 19.802710	-1.708713	-5.862166	 22.242740	 2.459064	 5.358407	 4.970507	-0.157739	-0.172698	-4.912829	-0.278924	-2.594505	-1.565725	-3.408134	 118.873700	 0.359924	-91.016530	 1.300241	 50.513120	-8.610466	-23.923790	-0.914123	-0.135149	 2.515083	 1.604988	-9.993423	-2.663731	 27.207670	 1.448608	 16.300430	 46.605100	-12.515100	-8.524592	 24.945220	-1.291676
-0.046053	 1.242894	-3.579953	-3.304037	 1.008552	-174.191400	 165.017700	 9.186739	 13.012080	 4.455675	-30.375300	 4.729455	-0.176411	 74.002700	 8.180245	 1.499962	 31.086690	-2.805884	-175.161300	 30.252040	-12.556750	-8.035804	-61.387920	 3.026920	 12.774330	 72.601680	-7.503475	-1.710891	 33.447930	 3.661181	-1.765834	 8.217903	-2.144333	 0.166231	 3.276736	-0.468168	-0.318971	-3.759732	-0.602538	-121.592500	 7.459898	 94.073220	 2.959649	 48.655780	 8.658035	 35.698050	-1.729446	 0.473106	-0.487570	-12.838790	 9.959191	 4.679032	 19.535460	-1.714560	-5.862545	 22.023680	 2.434779	 5.347056	 4.704008	-0.162475	-0.175826	-4.855958	-0.046169	-2.173994	-2.074890	-3.308606	 118.487700	-0.277576	-90.706570	 19.818630	 51.134750	-21.170600	-30.301780	-1.137234	-0.249395	 6.621755	 1.496699	-13.494220	-2.254995	 24.698690	 1.236595	 15.595300	 43.960250	-11.441060	-8.533404	 22.564220	-1.133046
-0.043784	 1.239269	-3.724357	-3.239026	-0.329476	-172.538400	 166.533400	 0.853955	 13.930370	 3.732487	-26.157230	 6.827837	 14.044650	 77.914060	-5.218036	 1.564653	 31.887870	-2.836552	 177.674500	 37.183890	-5.960959	-3.618076	-40.004790	 8.969177	 24.103220	 66.030360	-14.566070	-1.672839	 33.137830	 3.121367	-1.245230	 7.474283	-4.190930	 0.324701	 4.090626	-1.137087	-0.350400	-4.380177	-1.067373	-121.415800	 8.678225	 94.666740	 21.074630	 40.833340	-2.111019	 33.980970	-1.656652	 0.422343	 2.837492	-18.027980	 5.022154	 4.686832	 19.646620	-1.723670	-5.862507	 22.042970	 2.436915	 5.348756	 4.744009	-0.161753	-0.176115	-4.861025	 0.116351	-1.812023	-2.552577	-3.341966	 118.193100	-0.801142	-90.456500	 29.753560	 50.624440	-27.382850	-28.655360	-1.080878	-0.217546	 4.279004	-0.777098	-16.002390	-1.902107	 22.234440	 1.065497	 15.001370	 41.380440	-10.481400	-8.535069	 20.202520	-0.978617
